{"title":"One Night Stand (2016) 576p DesiSCR Rip - X264 AC3 - DUS Exclusi","uid":14547360,"size":2179860807,"categoryP":"video","categoryS":"movies","magnet":"?xt=urn:btih:05861712a030c79e9fff8684984a965ec7022de3&amp;dn=One+Night+Stand+%282016%29+576p+DesiSCR+Rip+-+X264+AC3+-+DUS+Exclusi&amp;tr=udp%3A%2F%2Ftracker.leechers-paradise.org%3A6969&amp;tr=udp%3A%2F%2Fzer0day.ch%3A1337&amp;tr=udp%3A%2F%2Fopen.demonii.com%3A1337&amp;tr=udp%3A%2F%2Ftracker.coppersurfer.tk%3A6969&amp;tr=udp%3A%2F%2Fexodus.desync.com%3A6969","seeders":1,"leechers":0,"uploader":"CDRiPD","files":3,"time":1462600993,"description":"One Night Stand (2016) 576p DesiSCR Rip - X264 AC3 - DUS Exclusive\r\n\r\n\r\n\r\n\r\nGeneral\r\nFormat                                   : Matroska\r\nFormat version                           : Version 2\r\nFile size                                : 2.00 GiB\r\nDuration                                 : 1h 32mn\r\nOverall bit rate                         : 3 109 Kbps\r\nVideo\r\nID                                       : 1\r\nFormat                                   : AVC\r\nFormat/Info                              : Advanced Video Codec\r\nFormat profile                           :   \r\nFormat settings, CABAC                   : Yes\r\nFormat settings, ReFrames                : 8 frames\r\nCodec ID                                 : V_MPEG4/ISO/AVC\r\nDuration                                 : 1h 32mn\r\nBit rate                                 : 2 723 Kbps\r\nWidth                                    : 1 042 pixels\r\nHeight                                   : 442 pixels\r\nDisplay aspect ratio                     : 2.35:1\r\nFrame rate mode                          : Constant\r\nFrame rate                               : 29.970 (30000/1001) fps\r\nColor space                              : YUV\r\nChroma subsampling                       : 4:2:0\r\nBit depth                                : 8 bits\r\nScan type                                : Progressive\r\nBits/(Pixel*Frame)                       : 0.197\r\nStream size                              : 1.75 GiB (88%)\r\nWriting library                          : x264 core 148 r2638 7599210\r\n\r\nAudio\r\nID                                       : 2\r\nFormat                                   : AC-3\r\nFormat/Info                              : Audio Coding 3\r\nMode extension                           : CM (complete main)\r\nFormat settings, Endianness              : Big\r\nCodec ID                                 : A_AC3\r\nDuration                                 : 1h 32mn\r\nBit rate mode                            : Constant\r\nBit rate                                 : 384 Kbps\r\nChannel(s)                               : 2 channels\r\nChannel positions                        : Front: L R\r\nSampling rate                            : 48.0 KHz\r\nFrame rate                               : 31.250 fps (1536 spf)\r\nCompression mode                         : Lossy\r\nStream size                              : 253 MiB (12%)\r\nLanguage                                 : Hindi\r\n\r\n\r\n\r\nScreen Shots:\r\n \nhttps://ititli.com/X5o \nhttps://ititli.com/X5G \nhttps://ititli.com/X5H \nhttps://ititli.com/X5M \nhttps://ititli.com/X5U \nhttps://ititli.com/X5h \nhttps://ititli.com/X5s \nhttps://ititli.com/X5Y \nhttps://ititli.com/X54","torrent":{"xt":"urn:btih:05861712a030c79e9fff8684984a965ec7022de3","amp;dn":"One+Night+Stand+%282016%29+576p+DesiSCR+Rip+-+X264+AC3+-+DUS+Exclusi","amp;tr":["udp%3A%2F%2Ftracker.leechers-paradise.org%3A6969","udp%3A%2F%2Fzer0day.ch%3A1337","udp%3A%2F%2Fopen.demonii.com%3A1337","udp%3A%2F%2Ftracker.coppersurfer.tk%3A6969","udp%3A%2F%2Fexodus.desync.com%3A6969"],"infoHash":"05861712a030c79e9fff8684984a965ec7022de3","infoHashBuffer":{"type":"Buffer","data":[5,134,23,18,160,48,199,158,159,255,134,132,152,74,150,94,199,2,45,227]},"announce":[],"urlList":[]}}